# Blender 4.2.1 LTS
# www.blender.org
mtllib rock.mtl
o Cube
v -1.828119 2.566351 -2.661675
v -1.828119 2.684544 -2.543483
v -1.550114 2.588040 -2.565172
v -1.266750 2.684544 -2.054891
v -1.130952 2.566351 -2.054891
v -1.241831 2.588040 -2.296855
v -1.241831 2.319723 -2.565172
v -1.130952 1.959567 -2.661675
v -1.130952 2.566351 -0.476038
v -1.266750 2.684544 -0.476038
v -1.241831 2.588040 -0.234074
v -1.828119 2.684544 0.012554
v -1.828119 2.566351 0.130747
v -1.550114 2.588040 0.034243
v -1.241831 2.319723 0.034243
v -1.130952 1.959567 0.130747
v -4.339314 1.959567 -2.661675
v -4.228435 2.319723 -2.565172
v -4.339314 2.566351 -2.054891
v -4.203516 2.684544 -2.054891
v -4.228435 2.588040 -2.296855
v -3.642147 2.566351 -2.661675
v -3.920152 2.588040 -2.565172
v -3.642147 2.684544 -2.543483
v -4.339314 1.959567 0.130747
v -4.228435 2.319723 0.034243
v -3.642147 2.566351 0.130747
v -3.642147 2.684544 0.012554
v -3.920152 2.588040 0.034243
v -4.339314 2.566351 -0.476038
v -4.228435 2.588040 -0.234074
v -4.203516 2.684544 -0.476038
v -1.130952 0.491909 -2.661675
v -1.244759 0.122239 -2.562623
v -1.130952 0.013436 -2.183202
v -1.270337 -0.107879 -2.183202
v -1.244759 -0.008826 -2.431557
v -1.680696 0.013436 -2.661675
v -1.395347 -0.008826 -2.562623
v -1.680696 -0.107879 -2.540361
v -1.680696 0.013436 0.130747
v -1.680696 -0.107879 0.009432
v -1.395347 -0.008826 0.031694
v -1.270337 -0.107879 -0.347727
v -1.130952 0.013436 -0.347727
v -1.244759 -0.008826 -0.099371
v -1.244759 0.122239 0.031694
v -1.130952 0.491909 0.130747
v -4.339314 0.491909 -2.661675
v -4.225506 0.122239 -2.562623
v -3.789570 0.013436 -2.661675
v -3.789570 -0.107879 -2.540361
v -4.074919 -0.008826 -2.562623
v -4.339314 0.013436 -2.183202
v -4.225506 -0.008826 -2.431557
v -4.199929 -0.107879 -2.183202
v -4.339314 0.013436 -0.347727
v -4.199929 -0.107879 -0.347727
v -4.225506 -0.008826 -0.099371
v -3.789570 -0.107879 0.009432
v -3.789570 0.013436 0.130747
v -4.074919 -0.008826 0.031694
v -4.225506 0.122239 0.031694
v -4.339314 0.491909 0.130747
vn -0.5241 0.6022 -0.6022
vn -0.5241 0.6022 0.6022
vn -0.0000 -1.0000 -0.0000
vn -0.5241 -0.6022 -0.6022
vn 0.5241 0.6022 0.6022
vn -0.0000 1.0000 -0.0000
vn -0.5241 -0.6022 0.6022
vn 0.5241 0.6022 -0.6022
vn 0.1869 0.6946 -0.6946
vn 0.6394 0.7346 -0.2271
vn 0.6394 0.7346 0.2271
vn 0.1869 0.6946 0.6946
vn -0.6394 0.7346 -0.2271
vn -0.1869 0.6946 -0.6946
vn -0.1869 0.6946 0.6946
vn -0.6394 0.7346 0.2271
vn 0.2866 0.3293 -0.8997
vn 0.2866 0.8997 -0.3293
vn 0.8595 0.3615 -0.3615
vn 0.8595 0.3615 0.3615
vn 0.2866 0.8997 0.3293
vn 0.2866 0.3293 0.8997
vn -0.2866 0.3293 -0.8997
vn -0.8595 0.3615 -0.3615
vn -0.2866 0.8997 -0.3293
vn -0.8595 0.3615 0.3615
vn -0.2866 0.3293 0.8997
vn -0.2866 0.8997 0.3293
vn -0.0000 0.7071 -0.7071
vn 0.6565 0.7543 -0.0000
vn -0.6565 0.7543 -0.0000
vn -0.0000 0.7071 0.7071
vn 0.5241 -0.6022 0.6022
vn 1.0000 -0.0000 -0.0000
vn -0.0000 -0.0000 1.0000
vn -1.0000 -0.0000 -0.0000
vn 0.5241 -0.6022 -0.6022
vn 0.6394 -0.7346 -0.2271
vn 0.1869 -0.6946 -0.6946
vn 0.1869 -0.6946 0.6946
vn 0.6394 -0.7346 0.2271
vn -0.1869 -0.6946 -0.6946
vn -0.6394 -0.7346 -0.2271
vn -0.6394 -0.7346 0.2271
vn -0.1869 -0.6946 0.6946
vn 0.2866 -0.3293 -0.8997
vn 0.8595 -0.3615 -0.3615
vn 0.2866 -0.8997 -0.3293
vn 0.2866 -0.3293 0.8997
vn 0.2866 -0.8997 0.3293
vn 0.8595 -0.3615 0.3615
vn -0.8595 -0.3615 -0.3615
vn -0.2866 -0.3293 -0.8997
vn -0.2866 -0.8997 -0.3293
vn -0.8595 -0.3615 0.3615
vn -0.2866 -0.8997 0.3293
vn -0.2866 -0.3293 0.8997
vn -0.0000 -0.7071 -0.7071
vn -0.6565 -0.7543 -0.0000
vn 0.6565 -0.7543 -0.0000
vn -0.0000 -0.7071 0.7071
vn -0.0000 -0.0000 -1.0000
vt 0.000000 0.000000
vt 0.084804 0.084804
vt 0.000000 0.169609
vt 0.084804 0.000000
vt 0.169609 0.084804
vt 0.084804 0.169609
vt 0.681788 0.979423
vt 0.727684 0.979423
vt 0.760137 0.946970
vt 0.760137 0.901074
vt 0.727684 0.868621
vt 0.681788 0.868621
vt 0.649335 0.901074
vt 0.649335 0.946970
vt 0.169609 0.000000
vt 0.254413 0.084804
vt 0.169609 0.169609
vt 0.000000 0.169609
vt 0.084804 0.254413
vt 0.000000 0.339217
vt 0.792590 0.979423
vt 0.838486 0.979423
vt 0.870939 0.946970
vt 0.870939 0.901074
vt 0.838486 0.868621
vt 0.792590 0.868621
vt 0.760137 0.901074
vt 0.760137 0.946970
vt 0.254413 0.000000
vt 0.339217 0.084804
vt 0.254413 0.169609
vt 0.084804 0.169609
vt 0.169609 0.254413
vt 0.084804 0.339217
vt 0.169609 0.169609
vt 0.254413 0.254413
vt 0.169609 0.339217
vt 0.254413 0.169609
vt 0.339217 0.254413
vt 0.254413 0.339217
vt 0.339217 0.000000
vt 0.424022 0.084804
vt 0.339217 0.169609
vt 0.339217 0.169609
vt 0.424022 0.254413
vt 0.339217 0.339217
vt 0.424022 0.000000
vt 0.508826 0.084804
vt 0.424022 0.169609
vt 0.084804 0.424022
vt 0.000000 0.508826
vt 0.084804 0.339217
vt 0.169609 0.424022
vt 0.084804 0.508826
vt 0.254413 0.424022
vt 0.169609 0.508826
vt 0.169609 0.628758
vt 0.169609 0.508826
vt 0.289540 0.508826
vt 0.289540 0.628758
vt 0.409472 0.508826
vt 0.409472 0.628758
vt 0.529403 0.508826
vt 0.529403 0.628758
vt 0.529403 0.628758
vt 0.529403 0.508826
vt 0.649335 0.508826
vt 0.649335 0.628758
vt 0.593631 0.289540
vt 0.593631 0.169609
vt 0.713562 0.169609
vt 0.713562 0.289540
vt 0.593631 0.409472
vt 0.713562 0.409472
vt 0.169609 0.748689
vt 0.289540 0.748689
vt 0.289540 0.748689
vt 0.409472 0.748689
vt 0.529403 0.748689
vt 0.649335 0.628758
vt 0.649335 0.748689
vt 0.769266 0.508826
vt 0.769266 0.628758
vt 0.769266 0.628758
vt 0.769266 0.748689
vt 0.678435 0.119932
vt 0.678435 -0.000000
vt 0.798366 -0.000000
vt 0.798366 0.119931
vt 0.000000 0.798367
vt -0.000000 0.678435
vt 0.119932 0.678435
vt 0.119932 0.798367
vt 0.833494 0.169609
vt 0.833494 0.289540
vt 0.833494 0.409472
vt 0.424022 0.169609
vt 0.508826 0.254413
vt 0.424022 0.339218
vt 0.903393 0.979423
vt 0.949288 0.979423
vt 0.981742 0.946970
vt 0.981742 0.901074
vt 0.949288 0.868621
vt 0.903393 0.868621
vt 0.870939 0.901074
vt 0.870939 0.946970
vt 0.921651 0.619629
vt 0.967547 0.619629
vt 1.000000 0.587175
vt 1.000000 0.541280
vt 0.967547 0.508826
vt 0.921651 0.508826
vt 0.889198 0.541280
vt 0.889198 0.587175
vt 0.921651 0.730431
vt 0.967547 0.730431
vt 1.000000 0.697978
vt 1.000000 0.652082
vt 0.967547 0.619629
vt 0.921651 0.619629
vt 0.889198 0.652082
vt 0.889198 0.697978
vt 0.339217 0.424022
vt 0.254413 0.508826
vt 0.424022 0.424022
vt 0.339217 0.508826
vt 0.508826 0.424022
vt 0.424022 0.508826
vt 0.508826 0.000000
vt 0.593631 0.084804
vt 0.508826 0.169609
vt 0.508826 0.169609
vt 0.593631 0.254413
vt 0.508826 0.339217
vt 0.593631 0.424022
vt 0.508826 0.508826
vt 0.593631 0.000000
vt 0.678435 0.084804
vt 0.593631 0.169609
vt 0.084804 0.593631
vt 0.000000 0.678435
vt 0.084804 0.508826
vt 0.169609 0.593631
vt 0.084804 0.678435
vt 0.169609 0.868621
vt 0.169609 0.748689
vt 0.289540 0.868621
vt 0.289540 0.868621
vt 0.409472 0.868621
vt 0.529403 0.868621
vt 0.649335 0.868621
vt 0.769266 0.868621
vt 0.769266 0.628758
vt 0.769266 0.508826
vt 0.889198 0.508826
vt 0.889198 0.628758
vt 0.769266 0.748689
vt 0.769266 0.628758
vt 0.889198 0.628758
vt 0.889198 0.748689
vt 0.769266 0.868621
vt 0.889198 0.868621
vt 0.918298 -0.000000
vt 0.918298 0.119931
vt 0.000000 0.918298
vt -0.000000 0.798367
vt 0.119932 0.918298
vt 0.953425 0.169609
vt 0.953425 0.289540
vt 0.953425 0.409472
vt 0.169609 0.988552
vt 0.289540 0.988552
vt 0.409472 0.868621
vt 0.409472 0.988552
vt 0.529403 0.988552
vt 0.649335 0.988552
vt 0.921651 0.841233
vt 0.967547 0.841233
vt 1.000000 0.808780
vt 1.000000 0.762884
vt 0.967547 0.730431
vt 0.921651 0.730431
vt 0.889198 0.762884
vt 0.889198 0.808780
s 0
usemtl Material
f 18/1/1 21/2/1 23/3/1
f 26/4/2 29/5/2 31/6/2
f 56/7/3 52/8/3 40/9/3 36/10/3 44/11/3 42/12/3 60/13/3 58/14/3
f 50/15/4 53/16/4 55/17/4
f 11/18/5 14/19/5 15/20/5
f 4/21/6 2/22/6 24/23/6 20/24/6 32/25/6 28/26/6 12/27/6 10/28/6
f 59/29/7 62/30/7 63/31/7
f 3/32/8 6/33/8 7/34/8
f 1/35/9 2/36/9 3/37/9
f 4/38/10 5/39/10 6/40/10
f 9/41/11 10/42/11 11/43/11
f 12/44/12 13/45/12 14/46/12
f 19/47/13 20/48/13 21/49/13
f 22/20/14 23/50/14 24/51/14
f 27/52/15 28/53/15 29/54/15
f 30/37/16 31/55/16 32/56/16
f 8/57/17 1/58/17 3/59/17 7/60/17
f 2/60/18 4/59/18 6/61/18 3/62/18
f 5/62/19 8/61/19 7/63/19 6/64/19
f 16/65/20 9/66/20 11/67/20 15/68/20
f 10/69/21 12/70/21 14/71/21 11/72/21
f 13/73/22 16/69/22 15/72/22 14/74/22
f 22/75/23 17/57/23 18/60/23 23/76/23
f 17/77/24 19/60/24 21/62/24 18/78/24
f 20/78/25 24/62/25 23/64/25 21/79/25
f 30/79/26 25/64/26 26/80/26 31/81/26
f 25/68/27 27/67/27 29/82/27 26/83/27
f 28/81/28 32/80/28 31/84/28 29/85/28
f 24/86/29 2/87/29 1/88/29 22/89/29
f 4/90/30 10/91/30 9/92/30 5/93/30
f 19/72/31 30/71/31 32/94/31 20/95/31
f 27/74/32 13/72/32 12/95/32 28/96/32
f 43/97/33 46/98/33 47/99/33
f 35/100/34 33/101/34 8/102/34 5/103/34 9/104/34 16/105/34 48/106/34 45/107/34
f 41/108/35 48/109/35 16/110/35 13/111/35 27/112/35 25/113/35 64/114/35 61/115/35
f 57/116/36 64/117/36 25/118/36 30/119/36 19/120/36 17/121/36 49/122/36 54/123/36
f 34/40/37 37/124/37 39/125/37
f 35/46/38 36/126/38 37/127/38
f 38/99/39 39/128/39 40/129/39
f 41/130/40 42/131/40 43/132/40
f 44/133/41 45/134/41 46/135/41
f 51/135/42 52/136/42 53/137/42
f 54/138/43 55/139/43 56/140/43
f 57/51/44 58/141/44 59/142/44
f 60/143/45 61/144/45 62/145/45
f 38/146/46 33/147/46 34/76/46 39/148/46
f 33/149/47 35/77/47 37/78/47 34/150/47
f 36/150/48 40/78/48 39/79/48 37/151/48
f 48/151/49 41/79/49 43/81/49 47/152/49
f 42/152/50 44/81/50 46/85/50 43/153/50
f 45/154/51 48/155/51 47/156/51 46/157/51
f 54/158/52 49/159/52 50/160/52 55/161/52
f 49/162/53 51/158/53 53/161/53 50/163/53
f 52/89/54 56/88/54 55/164/54 53/165/54
f 64/166/55 57/167/55 59/93/55 63/168/55
f 58/95/56 60/94/56 62/169/56 59/170/56
f 61/96/57 64/95/57 63/170/57 62/171/57
f 40/172/58 52/146/58 51/148/58 38/173/58
f 57/173/59 54/148/59 56/174/59 58/175/59
f 35/175/60 45/174/60 44/151/60 36/176/60
f 41/176/61 61/151/61 60/152/61 42/177/61
f 51/178/62 49/179/62 17/180/62 22/181/62 1/182/62 8/183/62 33/184/62 38/185/62
